<svg width="50" height="50" viewBox="0 0 50 50" fill="none" xmlns="http://www.w3.org/2000/svg">
<path fill-rule="evenodd" clip-rule="evenodd" d="M12.0202 7.97976C11.8249 7.7845 11.5083 7.7845 11.3131 7.97976C11.1178 8.17502 11.1178 8.4916 11.3131 8.68687L24.6464 22.0202C24.8417 22.2155 25.1583 22.2155 25.3535 22.0202L38.6868 8.68687C38.8821 8.4916 38.8821 8.17502 38.6868 7.97976C38.4916 7.7845 38.175 7.7845 37.9797 7.97976L25 20.9595L12.0202 7.97976ZM12.0202 27.9798C11.8249 27.7845 11.5083 27.7845 11.3131 27.9798C11.1178 28.175 11.1178 28.4916 11.3131 28.6869L24.6464 42.0202C24.7402 42.114 24.8673 42.1666 25 42.1666C25.1326 42.1666 25.2597 42.114 25.3535 42.0202L38.6868 28.6869C38.8821 28.4916 38.8821 28.175 38.6868 27.9798C38.4916 27.7845 38.175 27.7845 37.9797 27.9798L25 40.9595L12.0202 27.9798Z" fill="white"/>
</svg>
